<?xml version="1.0" encoding="UTF-8" standalone="no"?>
<svg
   version="1.1"
   id="Layer_1"
   x="0px"
   y="0px"
   width="4503.582"
   viewBox="0 0 4503.582 802.97595"
   enable-background="new 0 0 3500 802"
   xml:space="preserve"
   sodipodi:docname="path10.svg"
   inkscape:version="1.2 (dc2aedaf03, 2022-05-15)"
   inkscape:export-filename="anvisa42-footer.svg"
   inkscape:export-xdpi="96.239403"
   inkscape:export-ydpi="96.239403"
   height="802.97595"
   xmlns:inkscape="http://www.inkscape.org/namespaces/inkscape"
   xmlns:sodipodi="http://sodipodi.sourceforge.net/DTD/sodipodi-0.dtd"
   xmlns="http://www.w3.org/2000/svg"
   xmlns:svg="http://www.w3.org/2000/svg"><defs
   id="defs153" /><sodipodi:namedview
   id="namedview151"
   pagecolor="#ffffff"
   bordercolor="#000000"
   borderopacity="0.25"
   inkscape:showpageshadow="2"
   inkscape:pageopacity="0.0"
   inkscape:pagecheckerboard="0"
   inkscape:deskcolor="#d1d1d1"
   showgrid="false"
   inkscape:zoom="0.16628572"
   inkscape:cx="1557.5601"
   inkscape:cy="408.9347"
   inkscape:window-width="1304"
   inkscape:window-height="745"
   inkscape:window-x="54"
   inkscape:window-y="-8"
   inkscape:window-maximized="1"
   inkscape:current-layer="Layer_1" />




<path
   fill="#fff200"
   opacity="1"
   stroke="none"
   d="m 1286.2386,160.80953 c 18.9898,2.70776 38.1453,4.58647 56.9266,8.33822 22.2606,4.44677 44.4808,9.57805 66.1864,16.16593 17.0217,5.16629 33.2852,12.87561 49.7919,19.68205 18.4262,7.59795 35.5271,17.69643 51.831,29.04689 9.1809,6.39159 17.6833,13.75795 26.9401,21.12201 8.2167,8.53671 15.9684,16.65253 23.7839,24.70636 0.6267,0.64581 1.6936,0.8645 2.5559,1.28168 4.4347,6.52349 8.9265,13.00894 13.293,19.57773 12.3952,18.6473 21.0474,38.87979 24.6334,61.02511 2.1328,13.17099 3.4013,26.48196 5.0584,39.72998 -0.5343,0.18463 -1.0685,0.36926 -1.6027,0.5539 -0.8517,-0.57737 -1.8158,-1.03995 -2.5387,-1.74872 -24.4732,-23.99747 -50.2752,-46.45386 -78.7456,-65.59012 -23.7438,-15.95926 -47.529,-31.95319 -72.1557,-46.47354 -21.7065,-12.79862 -44.2441,-24.34589 -67.0785,-35.02646 -20.8244,-9.74036 -42.4579,-17.78554 -63.8964,-26.16425 -11.2202,-4.38514 -22.7877,-7.88141 -34.8817,-12.06982 -13.8217,-3.80181 -26.9602,-7.31288 -40.5158,-10.89862 -13.8126,-2.42861 -27.1522,-5.19333 -40.6183,-7.02863 -15.5256,-2.11595 -31.1342,-4.30867 -46.7598,-4.80949 -15.4537,-0.49529 -31.0248,0.51529 -46.449,1.91572 -13.0593,1.18572 -26.1994,2.98398 -38.9173,6.09229 -21.8071,5.32963 -42.8299,13.20171 -62.1292,24.8895 -8.2482,4.99513 -15.82913,11.09198 -24.06923,16.75872 -5.8433,5.0817 -11.3306,10.09288 -16.8178,15.10407 -15.25,13.74316 -27.873,29.6755 -37.8184,47.539 -7.6608,13.76007 -14.2397,28.12253 -21.6517,42.33203 -0.352,-4.57434 -0.352,-9.26361 -0.352,-14.41898 0.6594,-0.92288 1.8127,-1.29519 1.9072,-1.84848 4.5512,-26.62789 16.3495,-49.94042 32.9773,-70.86477 10.3793,-13.06128 22.4414,-24.67063 36.1954,-34.07991 13.1756,-9.01366 26.71683,-17.73905 40.94323,-24.9139 22.4699,-11.33226 46.096,-20.06459 70.7028,-25.73741 16.848,-3.88409 33.7209,-7.74066 50.7208,-10.85548 9.9439,-1.82195 20.1384,-2.55773 30.2565,-3.08968 23.74,-1.24812 47.5019,-2.07977 71.9899,-2.76427 13.9246,1.05092 27.1144,1.78614 40.3041,2.52134 z"
   id="path10"
   style="fill:#ffffff" />
<path
   fill="#00a651"
   opacity="1"
   stroke="none"
   d="m 1286.404,548.9742 c -0.055,1.99371 -0.1586,3.98743 -0.1588,5.98114 -0.01,82.36108 -0.01,164.72223 -0.01,247.552 -13.0147,0.46863 -26.0355,0.46863 -39.5251,0.46863 -0.4687,-80.09863 -0.4687,-160.19727 -0.4687,-240.92615 -92.0837,0 -183.7554,0 -275.71073,0 0,-13.20624 0,-25.78351 0,-39.11169 96.67973,0 193.23083,0 290.56243,0.0755 8.9572,8.70386 17.1341,17.33221 25.3109,25.96057 z"
   id="path12"
   style="fill:#ffffff" />
<path
   fill="#00a651"
   opacity="1"
   stroke="none"
   d="m 1564.7174,281.08443 c -1.3253,-0.34894 -2.3922,-0.56763 -3.0189,-1.21344 -7.8155,-8.05383 -15.5672,-16.16965 -23.4782,-24.58179 -0.088,-2.47232 0.015,-4.63238 0.015,-6.79243 0.01,-82.19449 0.01,-164.389 0.01,-247.052148 13.017,-0.46865697 26.0379,-0.46865697 39.5275,-0.46865697 0.4686,80.09744297 0.4686,160.19488497 0.4686,240.92183497 92.0785,0 183.7486,0 275.7056,0 0,13.20491 0,25.78163 0,39.11839 -96.3361,0 -192.5513,0 -289.2296,0.0682 z"
   id="path14"
   style="fill:#ffffff" />

<path
   fill="#00a651"
   opacity="1"
   stroke="none"
   d="m 1286.2387,160.35153 c -13.1898,-0.2772 -26.3796,-1.01242 -39.8433,-2.07899 -0.234,-52.34066 -0.194,-104.349962 -0.154,-156.827918 13.0209,-0.46865697 26.0418,-0.46865697 39.5314,-0.46865697 0.4678,52.97252297 0.4669,105.94504497 0.4659,159.37556497 z"
   id="path18"
   style="fill:#ffffff" />
<path
   fill="#00a651"
   opacity="1"
   stroke="none"
   d="m 1538.7101,802.97597 c -0.4685,-52.97253 -0.4683,-105.94507 -0.027,-159.45691 12.99,0.14765 25.5393,0.82367 38.0853,1.55792 0.5531,0.0324 1.0751,0.5965 1.6115,0.91297 -0.048,34.39978 -0.103,68.79956 -0.1393,103.19934 -0.019,17.61645 0,35.23291 -8e-4,53.31805 -13.0192,0.46863 -26.0402,0.46863 -39.5297,0.46863 z"
   id="path20"
   style="fill:#ffffff" />
<path
   fill="#fff200"
   opacity="1"
   stroke="none"
   d="m 1578.8386,645.98305 c -0.9949,-0.30957 -1.5169,-0.87366 -2.07,-0.90607 -12.546,-0.73425 -25.0953,-1.41027 -38.0855,-2.01617 -17.3757,-2.28992 -34.3204,-4.58948 -51.242,-7.04718 -30.344,-4.40711 -59.6855,-12.79236 -88.4732,-23.09113 -26.8103,-9.59137 -52.7013,-21.31567 -76.3823,-37.27514 -12.2367,-8.24665 -23.7388,-17.58344 -35.8772,-26.55042 -8.4812,-8.7511 -16.6581,-17.37945 -25.1502,-26.14477 -29.6518,-34.96277 -43.4119,-75.29651 -43.1982,-121.29734 1.2315,0.73777 2.1001,1.07535 2.734,1.66523 10.0356,9.33786 19.6713,19.14755 30.145,27.96221 13.822,11.63266 27.9659,22.94513 42.5783,33.55979 16.0912,11.68887 32.6117,22.83984 49.4257,33.46472 15.5494,9.82571 31.5603,18.96265 47.6903,27.81567 14.7454,8.09302 29.6244,16.06995 44.979,22.89576 22.9458,10.20056 46.2759,19.55859 69.6137,28.84521 10.4362,4.15271 21.2878,7.26172 32.6533,11.0824 13.8187,3.77325 26.9349,7.30847 40.4683,10.92706 14.1487,2.43567 27.8272,5.18341 41.6259,7.03571 15.6927,2.10663 31.4754,4.5271 47.2507,4.7727 17.8882,0.27844 35.8506,-1.26684 53.7047,-2.867 10.4422,-0.93585 20.8677,-2.98883 31.0686,-5.48719 20.7277,-5.07647 40.6999,-12.41381 59.043,-23.47015 8.9443,-5.39123 17.2872,-11.78021 26.2581,-17.78967 5.8435,-5.08283 11.3314,-10.09363 16.8193,-15.10443 15.3199,-13.77613 27.9156,-29.81153 37.9488,-47.702 7.4115,-13.21564 13.7696,-27.02203 20.6033,-40.56201 0.3151,-0.62433 0.6917,-1.21756 1.3703,-1.66125 -2.4527,31.64669 -13.6984,59.71469 -33.2356,84.6896 -15.7563,20.14172 -35.0688,36.0177 -56.7438,49.21021 -24.5472,14.94061 -50.695,26.38635 -78.3858,33.96862 -16.9508,4.64142 -34.1249,8.62628 -51.3856,11.92871 -14.5307,2.7801 -29.2976,4.46564 -44.0236,6.03956 -11.12,1.18847 -22.334,1.59649 -33.5183,2.05865 -12.5764,0.51947 -25.1664,0.70978 -38.209,1.05011 z"
   id="path22"
   style="fill:#ffffff" />

<path
   fill="#00a651"
   opacity="1"
   stroke="none"
   d="m 970.13197,257.4529 c 5.4187,-5.47405 10.906,-10.48523 17.2143,-15.50614 86.76893,-0.01 172.71683,-0.01 258.89493,-0.01 0,-13.17355 0,-25.48405 0,-37.79454 13.1385,3.51108 26.277,7.02215 39.7245,10.7401 0.3091,21.97956 0.3091,43.75229 0.3091,65.80505 -105.475,0 -210.3513,0 -316.07433,0 0,-7.60153 0,-15.18671 -0.068,-23.23477 z"
   id="path26"
   style="fill:#ffffff" />
<path
   fill="#00a651"
   opacity="1"
   stroke="none"
   d="m 1578.2304,599.78951 c -13.1162,-3.53522 -26.2324,-7.07044 -39.6755,-10.7807 -0.3268,-21.9444 -0.3268,-43.71375 -0.3268,-65.75379 105.4632,0 210.3346,0 316.0523,0 0,7.61267 0,15.19745 0.069,23.245 -5.4192,5.47363 -10.907,10.48443 -17.2154,15.50537 -86.7661,0.0102 -172.7118,0.0102 -258.9033,0.0102 0,13.1554 0,25.46466 0,37.77393 z"
   id="path28"
   style="fill:#ffffff" />





<path
   fill="#034694"
   opacity="1"
   stroke="none"
   d="m 1407.496,464.96959 c -22.9975,-2.92529 -39.1102,-14.97342 -47.8499,-35.6351 -8.9346,-21.12234 -7.0862,-41.841 6.4394,-60.87027 11.219,-15.78418 26.6088,-23.69034 46.0268,-24.55695 31.2689,-1.39547 56.5718,22.97696 59.9673,52.95871 3.386,29.89698 -12.4691,56.01761 -40.1432,65.46451 -7.4256,2.53479 -15.9509,1.84769 -24.4404,2.6391 z"
   id="path40"
   style="fill:#ffffff" />






















































<path
   id="rect971"
   style="fill:#999999;stroke:none;stroke-width:1.6"
   d="m 4477.3126,70.31615 h 24.5665 c 1.4404,0 2.6,1.1596 2.6,2.6 v 658.16823 c 0,1.44039 -1.1596,2.6 -2.6,2.6 h -24.5665 c -1.4404,0 -2.6,-1.15961 -2.6,-2.6 V 72.91615 c 0,-1.4404 1.1596,-2.6 2.6,-2.6 z" /><path
   id="rect971-8"
   style="fill:#999999;stroke:none;stroke-width:1.61018"
   d="M 5.6250384,76.445951 H 30.347807 c 1.449623,0 2.616532,1.166991 2.616532,2.616612 V 741.41874 c 0,1.44954 -1.166909,2.61653 -2.616532,2.61653 H 5.6250384 c -1.4496222,0 -2.6165313,-1.16699 -2.6165313,-2.61653 V 79.062563 c 0,-1.449621 1.1669091,-2.616612 2.6165313,-2.616612 z" /><g
   aria-label="ANVISA"
   transform="matrix(1.0638311,0,0,0.93999884,-2380.3447,-0.02403497)"
   id="text1967"
   style="font-weight:bold;font-stretch:condensed;font-size:379.871px;font-family:Arial;-inkscape-font-specification:'Arial Bold Condensed';fill:#ffffff;stroke-width:85.4706"><path
     d="m 4094.1376,349.9761 108.879,-274.516149 h 38.5807 L 4348.807,349.9761 h -42.1049 l -29.8629,-76.04839 h -116.2984 l -30.2338,76.04839 z m 77.7178,-104.98388 h 93.6693 L 4218.7828,126.6535 Z"
     style="font-weight:normal;font-stretch:normal;font-family:'Lucida Sans';-inkscape-font-specification:'Lucida Sans';fill:#ffffff"
     id="path2918" /><path
     d="M 4388.5005,349.9761 V 75.459951 h 38.2097 L 4564.8957,287.46803 V 75.459951 h 33.3871 V 349.9761 h -38.0242 L 4421.8876,137.96802 V 349.9761 Z"
     style="font-weight:normal;font-stretch:normal;font-family:'Lucida Sans';-inkscape-font-specification:'Lucida Sans';fill:#ffffff"
     id="path2920" /><path
     d="M 4744.0731,349.9761 4640.3876,75.459951 h 38.9516 l 84.9517,224.806469 81.9838,-224.806469 h 34.1291 L 4780.7989,349.9761 Z"
     style="font-weight:normal;font-stretch:normal;font-family:'Lucida Sans';-inkscape-font-specification:'Lucida Sans';fill:#ffffff"
     id="path2922" /><path
     d="M 4917.3151,349.9761 V 75.459951 h 38.9516 V 349.9761 Z"
     style="font-weight:normal;font-stretch:normal;font-family:'Lucida Sans';-inkscape-font-specification:'Lucida Sans';fill:#ffffff"
     id="path2924" /><path
     d="m 5010.0571,344.78256 v -38.58065 q 33.0161,15.20968 48.2258,18.3629 15.2096,3.15323 28.1935,3.15323 23.5565,0 37.0968,-12.79839 13.7258,-12.98387 13.7258,-30.97581 0,-13.54032 -7.0484,-25.04032 -7.2339,-11.31452 -35.9839,-27.6371 l -18.9193,-10.94355 q -37.8387,-21.51613 -50.8226,-39.32259 -12.9839,-17.80645 -12.9839,-39.50807 0,-19.4758 10.2016,-36.54032 10.3871,-17.064519 27.6371,-26.709681 17.4355,-9.645162 43.7742,-9.645162 31.7178,0 66.9597,10.572582 v 35.612911 q -30.6048,-12.05646 -42.1048,-14.46775 -11.3145,-2.596773 -22.6291,-2.596773 -23.7419,0 -35.2419,12.427423 -11.3145,12.42742 -11.3145,25.41129 0,8.90323 5.379,18.17742 5.3791,9.08871 14.4678,15.76613 9.0887,6.49194 25.0403,15.58065 l 19.6613,11.12903 q 38.2097,21.70162 51.0081,39.69355 12.7983,18.17742 12.7983,41.73388 0,32.08871 -24.4838,55.64516 -24.2984,23.55646 -71.7823,23.55646 -14.6532,0 -28.379,-2.04032 -13.7258,-1.85484 -42.4758,-10.01613 z"
     style="font-weight:normal;font-stretch:normal;font-family:'Lucida Sans';-inkscape-font-specification:'Lucida Sans';fill:#ffffff"
     id="path2926" /><path
     d="M 5199.2506,349.9761 5308.1297,75.459951 h 38.5806 L 5453.92,349.9761 h -42.1048 l -29.8629,-76.04839 H 5265.6539 L 5235.42,349.9761 Z m 77.7178,-104.98388 h 93.6694 l -46.742,-118.33872 z"
     style="font-weight:normal;font-stretch:normal;font-family:'Lucida Sans';-inkscape-font-specification:'Lucida Sans';fill:#ffffff"
     id="path2928" /></g><g
   aria-label="Agência Nacional"
   id="text2137"
   style="font-size:147.772px;font-family:'Lucida Sans';-inkscape-font-specification:'Lucida Sans';fill:#ffffff;stroke-width:9.23573"
   transform="translate(-2380.3447,-0.02403497)"><path
     d="m 4380.1163,521.05658 42.3545,-106.78836 h 15.0081 l 41.7052,106.78836 h -16.379 l -11.6168,-29.58326 h -45.2408 l -11.7611,29.58326 z m 30.2326,-40.83933 h 36.4379 L 4428.604,434.1828 Z"
     id="path2931"
     style="fill:#ffffff" /><path
     d="m 4495.3467,547.10428 1.6595,-12.33838 q 12.3384,5.84449 24.3882,5.84449 13.4928,0 18.688,-6.92681 5.2672,-6.85466 5.2672,-18.54365 v -12.33839 q -3.1026,6.49389 -9.6687,11.47254 -6.566,4.97864 -16.0182,4.97864 -16.0904,0 -23.4502,-11.54469 -7.3597,-11.61684 -7.3597,-26.33631 0,-11.18392 4.3293,-20.8526 4.3292,-9.74083 11.9776,-14.64732 7.7205,-4.90649 17.6056,-4.90649 4.4014,0 8.1535,1.01016 3.8241,1.01016 7.0711,3.03048 3.3191,2.02032 7.3597,6.63819 v -8.94713 h 14.2866 v 57.0019 q 0,24.89323 -4.185,34.05683 -4.1128,9.16359 -12.9878,13.34854 -8.8028,4.18495 -20.9969,4.18495 -3.9684,0 -8.5863,-0.43293 -4.5457,-0.43292 -8.1535,-1.15446 -3.5355,-0.64939 -9.38,-2.59756 z m 50.0029,-53.17772 v -32.54159 q -4.69,-4.90649 -9.813,-7.28758 -5.0508,-2.45325 -10.6066,-2.45325 -9.4523,0 -15.2246,7.64836 -5.7002,7.5762 -5.7002,22.00706 0,11.32823 4.2571,18.4715 4.2571,7.07112 13.8536,7.07112 6.2053,0 11.9776,-3.24694 5.8445,-3.24694 11.2561,-9.66868 z"
     id="path2933"
     style="fill:#ffffff" /><path
     d="m 4644.6339,518.53118 q -14.2865,4.32926 -24.4603,4.32926 -18.255,0 -28.7174,-12.26623 -10.4624,-12.33839 -10.4624,-29.07819 0,-11.0396 4.6179,-20.9969 4.6179,-9.95729 12.0498,-14.79163 7.504,-4.83434 17.6056,-4.83434 13.565,0 21.6463,9.74083 8.0813,9.74083 8.0813,29.15034 l -0.072,4.32926 h -49.4256 q 1.1544,10.39022 4.4735,16.01825 3.3191,5.62804 8.8028,8.80283 5.5559,3.10263 14.0701,3.10263 4.3293,0 8.5864,-0.72154 4.3293,-0.7937 13.2042,-4.04064 z m -48.4877,-45.09644 h 34.5619 q 0,-11.76115 -4.6178,-16.81195 -4.5457,-5.0508 -11.689,-5.0508 -8.1535,0 -12.7713,5.48373 -4.5458,5.41157 -5.4838,16.37902 z m 28.3567,-66.3098 16.0182,21.35767 h -12.4827 l -11.5446,-14.21439 -11.5447,14.21439 h -12.4827 l 16.0182,-21.35767 z"
     id="path2935"
     style="fill:#ffffff" /><path
     d="m 4669.5272,521.05658 v -78.35957 h 14.2144 v 14.71948 q 5.4115,-7.86482 12.5548,-12.12192 7.2154,-4.32926 14.936,-4.32926 9.9572,0 16.1625,6.34958 6.2053,6.27742 6.2053,17.46134 v 56.28035 h -14.2144 V 469.3941 q 0,-8.15343 -1.4431,-10.75099 -1.4431,-2.59755 -4.0406,-3.96848 -2.5976,-1.44309 -5.5559,-1.44309 -5.2673,0 -11.4004,3.24694 -6.061,3.24695 -13.2042,13.85363 v 50.72447 z"
     id="path2937"
     style="fill:#ffffff" /><path
     d="m 4815.6396,518.67549 q -13.7815,4.18495 -23.8109,4.18495 -10.4624,0 -19.1931,-5.62804 -8.7306,-5.70019 -13.2042,-14.93594 -4.4014,-9.23575 -4.4014,-20.85259 0,-17.31703 9.5965,-28.86172 9.5965,-11.61684 29.6554,-11.61684 9.2358,0 20.4919,2.5254 v 11.90546 q -12.0498,-3.53556 -19.626,-3.53556 -11.9776,0 -18.0386,8.94713 -6.0609,8.87498 -6.0609,21.06906 0,13.20423 6.7825,21.35767 6.8546,8.15343 17.7499,8.15343 9.7408,0 20.0589,-4.97864 z"
     id="path2939"
     style="fill:#ffffff" /><path
     d="m 4836.9252,521.05658 v -78.35957 h 14.2143 v 78.35957 z m 0,-92.57397 v -14.21439 h 14.2143 v 14.21439 z"
     id="path2941"
     style="fill:#ffffff" /><path
     d="m 4920.0469,511.09929 q -6.3496,5.84449 -12.5549,8.80282 -6.1331,2.95833 -12.0497,2.95833 -8.2978,0 -15.441,-5.48373 -7.1433,-5.48373 -7.1433,-16.01825 0,-11.54469 9.9573,-19.04874 9.9573,-7.5762 31.82,-7.5762 h 3.3191 v -9.45221 q 0,-5.62804 -1.5152,-8.15344 -1.5153,-2.59755 -4.7622,-4.04064 -3.1748,-1.44309 -7.937,-1.44309 -11.0396,0 -24.0995,6.92682 v -11.76115 q 14.3587,-5.8445 27.0578,-5.8445 6.9269,0 12.6992,2.23678 5.8445,2.16463 9.3079,6.92681 3.4634,4.69003 3.4634,15.15241 v 35.49991 q 0,5.91665 0.938,8.00913 0.938,2.02032 2.5976,3.10263 1.7317,1.08232 3.9685,1.08232 0.938,0 2.7418,-0.28862 l 1.0102,7.86482 q -4.8344,2.30894 -10.6789,2.30894 -3.8963,0 -7.504,-2.5254 -3.6077,-2.5254 -5.1951,-9.23575 z m -2.0925,-7.72051 v -20.27536 l -4.5457,-0.14431 q -11.1839,0 -18.7601,4.32926 -7.5762,4.32926 -7.5762,11.76115 0,5.12295 3.6798,8.65851 3.7521,3.53557 8.7307,3.53557 4.4736,0 9.0915,-1.94817 4.6178,-2.02032 9.38,-5.91665 z"
     id="path2943"
     style="fill:#ffffff" /><path
     d="M 5007.57,521.05658 V 414.26822 h 14.8638 l 53.755,82.47236 v -82.47236 h 12.9878 v 106.78836 h -14.7917 l -53.8271,-82.47236 v 82.47236 z"
     id="path2945"
     style="fill:#ffffff" /><path
     d="m 5157.5788,511.09929 q -6.3496,5.84449 -12.5548,8.80282 -6.1332,2.95833 -12.0498,2.95833 -8.2977,0 -15.441,-5.48373 -7.1433,-5.48373 -7.1433,-16.01825 0,-11.54469 9.9573,-19.04874 9.9573,-7.5762 31.82,-7.5762 h 3.3191 v -9.45221 q 0,-5.62804 -1.5152,-8.15344 -1.5152,-2.59755 -4.7622,-4.04064 -3.1748,-1.44309 -7.937,-1.44309 -11.0396,0 -24.0995,6.92682 v -11.76115 q 14.3587,-5.8445 27.0579,-5.8445 6.9268,0 12.6991,2.23678 5.8445,2.16463 9.3079,6.92681 3.4634,4.69003 3.4634,15.15241 v 35.49991 q 0,5.91665 0.938,8.00913 0.938,2.02032 2.5976,3.10263 1.7317,1.08232 3.9685,1.08232 0.938,0 2.7418,-0.28862 l 1.0102,7.86482 q -4.8343,2.30894 -10.6788,2.30894 -3.8964,0 -7.5041,-2.5254 -3.6077,-2.5254 -5.1951,-9.23575 z m -2.0925,-7.72051 v -20.27536 l -4.5457,-0.14431 q -11.1839,0 -18.7601,4.32926 -7.5762,4.32926 -7.5762,11.76115 0,5.12295 3.6799,8.65851 3.752,3.53557 8.7306,3.53557 4.4736,0 9.0915,-1.94817 4.6179,-2.02032 9.38,-5.91665 z"
     id="path2947"
     style="fill:#ffffff" /><path
     d="m 5253.1833,518.67549 q -13.7815,4.18495 -23.8109,4.18495 -10.4624,0 -19.193,-5.62804 -8.7307,-5.70019 -13.2043,-14.93594 -4.4014,-9.23575 -4.4014,-20.85259 0,-17.31703 9.5965,-28.86172 9.5965,-11.61684 29.6554,-11.61684 9.2358,0 20.4919,2.5254 v 11.90546 q -12.0498,-3.53556 -19.626,-3.53556 -11.9776,0 -18.0386,8.94713 -6.0609,8.87498 -6.0609,21.06906 0,13.20423 6.7825,21.35767 6.8546,8.15343 17.7499,8.15343 9.7408,0 20.0589,-4.97864 z"
     id="path2949"
     style="fill:#ffffff" /><path
     d="m 5274.4688,521.05658 v -78.35957 h 14.2144 v 78.35957 z m 0,-92.57397 v -14.21439 h 14.2144 v 14.21439 z"
     id="path2951"
     style="fill:#ffffff" /><path
     d="m 5348.3548,522.86044 q -11.1839,0 -19.4817,-4.54572 -8.2256,-4.61788 -13.0599,-14.43086 -4.8343,-9.88514 -4.8343,-22.00706 0,-11.40038 4.4014,-21.14121 4.4014,-9.81299 12.7713,-14.79164 8.442,-4.97864 20.2032,-4.97864 11.1839,0 19.4816,4.54572 8.2978,4.54572 13.06,14.43086 4.8343,9.88514 4.8343,21.93491 0,11.54468 -4.4736,21.35767 -4.4735,9.74083 -12.8434,14.71947 -8.2978,4.9065 -20.0589,4.9065 z m 0,-10.67884 q 10.6067,0 16.4512,-7.86482 5.8445,-7.93697 5.8445,-22.43998 0,-14.57517 -5.9167,-22.36784 -5.8445,-7.86482 -16.379,-7.86482 -10.5345,0 -16.379,7.86482 -5.8445,7.79267 -5.8445,22.36784 0,14.50301 5.8445,22.43998 5.8445,7.86482 16.379,7.86482 z"
     id="path2953"
     style="fill:#ffffff" /><path
     d="m 5407.9543,521.05658 v -78.35957 h 14.2144 v 14.71948 q 5.4115,-7.86482 12.5548,-12.12192 7.2154,-4.32926 14.9359,-4.32926 9.9573,0 16.1626,6.34958 6.2053,6.27742 6.2053,17.46134 v 56.28035 h -14.2144 V 469.3941 q 0,-8.15343 -1.4431,-10.75099 -1.4431,-2.59755 -4.0406,-3.96848 -2.5976,-1.44309 -5.5559,-1.44309 -5.2673,0 -11.4004,3.24694 -6.061,3.24695 -13.2042,13.85363 v 50.72447 z"
     id="path2955"
     style="fill:#ffffff" /><path
     d="m 5540.0688,511.09929 q -6.3496,5.84449 -12.5548,8.80282 -6.1332,2.95833 -12.0498,2.95833 -8.2978,0 -15.441,-5.48373 -7.1433,-5.48373 -7.1433,-16.01825 0,-11.54469 9.9573,-19.04874 9.9573,-7.5762 31.82,-7.5762 h 3.3191 v -9.45221 q 0,-5.62804 -1.5152,-8.15344 -1.5153,-2.59755 -4.7622,-4.04064 -3.1748,-1.44309 -7.937,-1.44309 -11.0396,0 -24.0995,6.92682 v -11.76115 q 14.3587,-5.8445 27.0579,-5.8445 6.9268,0 12.6991,2.23678 5.8445,2.16463 9.3079,6.92681 3.4634,4.69003 3.4634,15.15241 v 35.49991 q 0,5.91665 0.938,8.00913 0.938,2.02032 2.5976,3.10263 1.7317,1.08232 3.9685,1.08232 0.938,0 2.7418,-0.28862 l 1.0102,7.86482 q -4.8343,2.30894 -10.6788,2.30894 -3.8964,0 -7.5041,-2.5254 -3.6077,-2.5254 -5.1951,-9.23575 z m -2.0925,-7.72051 v -20.27536 l -4.5457,-0.14431 q -11.1839,0 -18.7601,4.32926 -7.5762,4.32926 -7.5762,11.76115 0,5.12295 3.6799,8.65851 3.752,3.53557 8.7306,3.53557 4.4736,0 9.0915,-1.94817 4.6178,-2.02032 9.38,-5.91665 z"
     id="path2957"
     style="fill:#ffffff" /><path
     d="M 5581.2688,521.05658 V 407.12494 h 14.2144 v 113.93164 z"
     id="path2959"
     style="fill:#ffffff" /></g><g
   aria-label="de Vigilância Sanitária"
   id="text2137-2"
   style="font-size:147.772px;font-family:'Lucida Sans';-inkscape-font-specification:'Lucida Sans';fill:#ffffff;stroke-width:9.23573"
   transform="translate(-2380.3447,-0.02403497)"><path
     d="m 4443.4581,675.92957 v -14.71948 q -4.3293,8.22559 -10.8953,12.41054 -6.4939,4.11279 -15.2246,4.11279 -14.4308,0 -22.44,-10.60668 -7.9369,-10.67884 -7.9369,-27.92371 0,-18.61581 8.9471,-30.9542 8.9471,-12.41054 24.4603,-12.41054 4.5457,0 8.6585,1.08232 4.1128,1.08231 7.2876,3.10263 3.247,1.94817 7.1433,6.49389 v -44.5192 h 14.2865 v 113.93164 z m 0,-59.67161 q -7.3597,-6.49389 -11.689,-8.08128 -4.2571,-1.65955 -9.2358,-1.65955 -10.3902,0 -15.441,8.73067 -4.9786,8.73067 -4.9786,22.51214 0,12.77131 4.4014,20.13105 4.4736,7.35974 13.7815,7.35974 5.9166,0 11.689,-3.24694 5.8445,-3.24695 11.4725,-9.66868 z"
     id="path2962"
     style="fill:#ffffff" /><path
     d="m 4543.6083,673.40416 q -14.2866,4.32926 -24.4604,4.32926 -18.255,0 -28.7174,-12.26623 -10.4623,-12.33838 -10.4623,-29.07818 0,-11.03961 4.6178,-20.9969 4.6179,-9.95729 12.0498,-14.79163 7.5041,-4.83434 17.6057,-4.83434 13.565,0 21.6462,9.74083 8.0813,9.74083 8.0813,29.15034 l -0.072,4.32925 h -49.4257 q 1.1544,10.39022 4.4735,16.01826 3.3191,5.62803 8.8029,8.80282 5.5559,3.10264 14.0701,3.10264 4.3292,0 8.5863,-0.72154 4.3293,-0.7937 13.2043,-4.04065 z m -48.4877,-45.09643 h 34.5619 q 0,-11.76115 -4.6179,-16.81195 -4.5457,-5.0508 -11.689,-5.0508 -8.1534,0 -12.7713,5.48372 -4.5457,5.41158 -5.4837,16.37903 z"
     id="path2964"
     style="fill:#ffffff" /><path
     d="M 4643.9749,675.92957 4603.6406,569.1412 h 15.1524 l 33.0467,87.45101 31.8922,-87.45101 h 13.2764 l -38.7469,106.78837 z"
     id="path2966"
     style="fill:#ffffff" /><path
     d="M 4711.8721,675.92957 V 597.57 h 14.2144 v 78.35957 z m 0,-92.57397 v -14.2144 h 14.2144 v 14.2144 z"
     id="path2968"
     style="fill:#ffffff" /><path
     d="m 4754.8761,701.97727 1.6595,-12.33839 q 12.3384,5.8445 24.3882,5.8445 13.4928,0 18.6879,-6.92681 5.2673,-6.85466 5.2673,-18.54366 v -12.33838 q -3.1026,6.49388 -9.6687,11.47253 -6.566,4.97865 -16.0182,4.97865 -16.0904,0 -23.4502,-11.54469 -7.3597,-11.61684 -7.3597,-26.33632 0,-11.18391 4.3292,-20.85259 4.3293,-9.74083 11.9776,-14.64732 7.7206,-4.9065 17.6057,-4.9065 4.4014,0 8.1534,1.01016 3.8242,1.01016 7.0712,3.03048 3.319,2.02033 7.3597,6.6382 V 597.57 h 14.2865 v 57.00189 q 0,24.89324 -4.1849,34.05683 -4.1128,9.1636 -12.9878,13.34855 -8.8028,4.18495 -20.9969,4.18495 -3.9685,0 -8.5863,-0.43293 -4.5458,-0.43293 -8.1535,-1.15447 -3.5355,-0.64939 -9.38,-2.59755 z m 50.0029,-53.17772 v -32.54159 q -4.69,-4.90649 -9.813,-7.28758 -5.0508,-2.45325 -10.6067,-2.45325 -9.4522,0 -15.2245,7.64836 -5.7002,7.5762 -5.7002,22.00706 0,11.32822 4.2571,18.4715 4.2571,7.07112 13.8536,7.07112 6.2053,0 11.9776,-3.24694 5.8445,-3.24695 11.2561,-9.66868 z"
     id="path2970"
     style="fill:#ffffff" /><path
     d="M 4846.7285,675.92957 V 597.57 h 14.2144 v 78.35957 z m 0,-92.57397 v -14.2144 h 14.2144 v 14.2144 z"
     id="path2972"
     style="fill:#ffffff" /><path
     d="M 4889.4438,675.92957 V 561.99793 h 14.2144 v 113.93164 z"
     id="path2974"
     style="fill:#ffffff" /><path
     d="m 4972.5656,665.97227 q -6.3496,5.8445 -12.5549,8.80283 -6.1331,2.95832 -12.0497,2.95832 -8.2978,0 -15.4411,-5.48372 -7.1432,-5.48373 -7.1432,-16.01826 0,-11.54469 9.9572,-19.04873 9.9573,-7.5762 31.8201,-7.5762 h 3.3191 v -9.45222 q 0,-5.62803 -1.5152,-8.15343 -1.5153,-2.59756 -4.7622,-4.04064 -3.1748,-1.44309 -7.937,-1.44309 -11.0396,0 -24.0995,6.92681 v -11.76115 q 14.3587,-5.8445 27.0578,-5.8445 6.9268,0 12.6992,2.23679 5.8445,2.16463 9.3079,6.92681 3.4634,4.69003 3.4634,15.1524 v 35.49992 q 0,5.91665 0.938,8.00912 0.938,2.02033 2.5975,3.10264 1.7318,1.08231 3.9685,1.08231 0.938,0 2.7419,-0.28861 l 1.0102,7.86482 q -4.8344,2.30893 -10.6789,2.30893 -3.8963,0 -7.504,-2.5254 -3.6077,-2.5254 -5.1951,-9.23575 z m -2.0925,-7.72051 V 637.9764 l -4.5457,-0.1443 q -11.1839,0 -18.7601,4.32925 -7.5762,4.32926 -7.5762,11.76115 0,5.12296 3.6798,8.65852 3.752,3.53556 8.7307,3.53556 4.4736,0 9.0914,-1.94817 4.6179,-2.02032 9.3801,-5.91665 z m -4.4736,-96.25383 16.0183,21.35767 h -12.4827 l -11.5447,-14.2144 -11.5447,14.2144 h -12.4827 l 16.0183,-21.35767 z"
     id="path2976"
     style="fill:#ffffff" /><path
     d="M 5013.7657,675.92957 V 597.57 h 14.2144 v 14.71947 q 5.4115,-7.86481 12.5548,-12.12192 7.2154,-4.32926 14.936,-4.32926 9.9572,0 16.1625,6.34958 6.2053,6.27743 6.2053,17.46134 v 56.28036 h -14.2144 v -51.66248 q 0,-8.15344 -1.4431,-10.75099 -1.4431,-2.59756 -4.0406,-3.96849 -2.5976,-1.44309 -5.5559,-1.44309 -5.2673,0 -11.4004,3.24695 -6.061,3.24694 -13.2042,13.85362 v 50.72448 z"
     id="path2978"
     style="fill:#ffffff" /><path
     d="m 5159.8781,673.54847 q -13.7814,4.18495 -23.8109,4.18495 -10.4624,0 -19.193,-5.62803 -8.7307,-5.70019 -13.2043,-14.93594 -4.4014,-9.23575 -4.4014,-20.85259 0,-17.31704 9.5965,-28.86172 9.5966,-11.61685 29.6555,-11.61685 9.2357,0 20.4918,2.5254 v 11.90546 q -12.0498,-3.53556 -19.626,-3.53556 -11.9776,0 -18.0386,8.94714 -6.0609,8.87497 -6.0609,21.06905 0,13.20424 6.7825,21.35767 6.8546,8.15344 17.7499,8.15344 9.7409,0 20.0589,-4.97865 z"
     id="path2980"
     style="fill:#ffffff" /><path
     d="M 5181.1636,675.92957 V 597.57 h 14.2144 v 78.35957 z m 0,-92.57397 v -14.2144 h 14.2144 v 14.2144 z"
     id="path2982"
     style="fill:#ffffff" /><path
     d="m 5264.2854,665.97227 q -6.3496,5.8445 -12.5548,8.80283 -6.1331,2.95832 -12.0498,2.95832 -8.2977,0 -15.441,-5.48372 -7.1433,-5.48373 -7.1433,-16.01826 0,-11.54469 9.9573,-19.04873 9.9573,-7.5762 31.82,-7.5762 h 3.3191 v -9.45222 q 0,-5.62803 -1.5152,-8.15343 -1.5152,-2.59756 -4.7622,-4.04064 -3.1748,-1.44309 -7.937,-1.44309 -11.0396,0 -24.0995,6.92681 v -11.76115 q 14.3587,-5.8445 27.0579,-5.8445 6.9268,0 12.6991,2.23679 5.8445,2.16463 9.3079,6.92681 3.4634,4.69003 3.4634,15.1524 v 35.49992 q 0,5.91665 0.938,8.00912 0.938,2.02033 2.5976,3.10264 1.7317,1.08231 3.9685,1.08231 0.938,0 2.7418,-0.28861 l 1.0102,7.86482 q -4.8343,2.30893 -10.6788,2.30893 -3.8964,0 -7.5041,-2.5254 -3.6077,-2.5254 -5.1951,-9.23575 z m -2.0925,-7.72051 V 637.9764 l -4.5457,-0.1443 q -11.1839,0 -18.7601,4.32925 -7.5762,4.32926 -7.5762,11.76115 0,5.12296 3.6799,8.65852 3.752,3.53556 8.7306,3.53556 4.4736,0 9.0915,-1.94817 4.6179,-2.02032 9.38,-5.91665 z"
     id="path2984"
     style="fill:#ffffff" /><path
     d="m 5345.2425,673.90925 v -15.0081 q 12.8435,5.91665 18.7601,7.14328 5.9167,1.22662 10.9675,1.22662 9.1636,0 14.4309,-4.97865 5.3394,-5.0508 5.3394,-12.04976 0,-5.26727 -2.7419,-9.74084 -2.814,-4.40141 -13.9979,-10.75099 l -7.3598,-4.2571 q -14.7194,-8.3699 -19.7702,-15.29671 -5.0508,-6.92681 -5.0508,-15.36887 0,-7.5762 3.9685,-14.21439 4.0406,-6.6382 10.7509,-10.39022 6.7825,-3.75203 17.0285,-3.75203 12.3383,0 26.0477,4.1128 v 13.85363 q -11.9055,-4.69003 -16.3791,-5.62804 -4.4014,-1.01016 -8.8028,-1.01016 -9.2357,0 -13.7093,4.83434 -4.4014,4.83434 -4.4014,9.88514 0,3.4634 2.0925,7.07112 2.0924,3.53556 5.628,6.13311 3.5355,2.5254 9.7408,6.06096 l 7.6484,4.32926 q 14.8638,8.44205 19.8424,15.44102 4.9787,7.07112 4.9787,16.23472 0,12.48269 -9.5244,21.64629 -9.4522,9.16359 -27.9237,9.16359 -5.7002,0 -11.0396,-0.79369 -5.3395,-0.72155 -16.5234,-3.89633 z"
     id="path2986"
     style="fill:#ffffff" /><path
     d="m 5472.2341,665.97227 q -6.3496,5.8445 -12.5549,8.80283 -6.1331,2.95832 -12.0497,2.95832 -8.2978,0 -15.4411,-5.48372 -7.1432,-5.48373 -7.1432,-16.01826 0,-11.54469 9.9573,-19.04873 9.9573,-7.5762 31.82,-7.5762 h 3.3191 v -9.45222 q 0,-5.62803 -1.5152,-8.15343 -1.5153,-2.59756 -4.7622,-4.04064 -3.1748,-1.44309 -7.937,-1.44309 -11.0396,0 -24.0995,6.92681 v -11.76115 q 14.3587,-5.8445 27.0578,-5.8445 6.9269,0 12.6992,2.23679 5.8445,2.16463 9.3079,6.92681 3.4634,4.69003 3.4634,15.1524 v 35.49992 q 0,5.91665 0.938,8.00912 0.938,2.02033 2.5976,3.10264 1.7317,1.08231 3.9685,1.08231 0.938,0 2.7418,-0.28861 l 1.0102,7.86482 q -4.8344,2.30893 -10.6789,2.30893 -3.8963,0 -7.504,-2.5254 -3.6077,-2.5254 -5.1951,-9.23575 z m -2.0925,-7.72051 V 637.9764 l -4.5457,-0.1443 q -11.1839,0 -18.7601,4.32925 -7.5762,4.32926 -7.5762,11.76115 0,5.12296 3.6798,8.65852 3.7521,3.53556 8.7307,3.53556 4.4736,0 9.0915,-1.94817 4.6178,-2.02032 9.38,-5.91665 z"
     id="path2988"
     style="fill:#ffffff" /><path
     d="M 5513.4341,675.92957 V 597.57 h 14.2144 v 14.71947 q 5.4116,-7.86481 12.5549,-12.12192 7.2154,-4.32926 14.9359,-4.32926 9.9573,0 16.1626,6.34958 6.2052,6.27743 6.2052,17.46134 v 56.28036 h -14.2144 v -51.66248 q 0,-8.15344 -1.443,-10.75099 -1.4431,-2.59756 -4.0407,-3.96849 -2.5975,-1.44309 -5.5559,-1.44309 -5.2672,0 -11.4003,3.24695 -6.061,3.24694 -13.2043,13.85362 v 50.72448 z"
     id="path2990"
     style="fill:#ffffff" /><path
     d="M 5605.1423,675.92957 V 597.57 h 14.2144 v 78.35957 z m 0,-92.57397 v -14.2144 h 14.2144 v 14.2144 z"
     id="path2992"
     style="fill:#ffffff" /><path
     d="m 5682.7803,675.92957 q -6.5661,1.80385 -11.4004,1.80385 -10.5345,0 -16.7398,-6.06096 -6.2053,-6.13311 -6.2053,-17.38918 v -46.03445 h -9.813 V 597.57 h 9.813 v -14.2144 l 14.2144,-1.37093 V 597.57 h 20.4918 v 10.67883 h -20.4918 v 43.43689 q 0,8.22559 3.1748,11.83331 3.1748,3.53556 10.1016,3.53556 2.814,0 6.8547,-0.93801 z"
     id="path2994"
     style="fill:#ffffff" /><path
     d="m 5743.5343,665.97227 q -6.3496,5.8445 -12.5549,8.80283 -6.1331,2.95832 -12.0498,2.95832 -8.2977,0 -15.441,-5.48372 -7.1433,-5.48373 -7.1433,-16.01826 0,-11.54469 9.9573,-19.04873 9.9573,-7.5762 31.8201,-7.5762 h 3.3191 v -9.45222 q 0,-5.62803 -1.5153,-8.15343 -1.5152,-2.59756 -4.7621,-4.04064 -3.1748,-1.44309 -7.937,-1.44309 -11.0396,0 -24.0996,6.92681 v -11.76115 q 14.3588,-5.8445 27.0579,-5.8445 6.9268,0 12.6992,2.23679 5.8445,2.16463 9.3079,6.92681 3.4634,4.69003 3.4634,15.1524 v 35.49992 q 0,5.91665 0.938,8.00912 0.938,2.02033 2.5975,3.10264 1.7317,1.08231 3.9685,1.08231 0.938,0 2.7419,-0.28861 l 1.0101,7.86482 q -4.8343,2.30893 -10.6788,2.30893 -3.8963,0 -7.504,-2.5254 -3.6077,-2.5254 -5.1951,-9.23575 z m -2.0925,-7.72051 V 637.9764 l -4.5457,-0.1443 q -11.184,0 -18.7602,4.32925 -7.5762,4.32926 -7.5762,11.76115 0,5.12296 3.6799,8.65852 3.752,3.53556 8.7307,3.53556 4.4735,0 9.0914,-1.94817 4.6179,-2.02032 9.3801,-5.91665 z m -22.2957,-74.89616 16.0183,-21.35767 h 16.0182 l -19.5538,21.35767 z"
     id="path2996"
     style="fill:#ffffff" /><path
     d="M 5784.7343,675.92957 V 597.57 h 14.2144 v 14.71947 q 4.0406,-7.86481 10.4624,-12.12192 6.4939,-4.32926 14.0701,-4.32926 2.1646,0 4.5457,0.36078 v 13.27639 q -3.6077,-1.22663 -6.4939,-1.22663 -6.7104,0 -12.4106,4.04064 -5.628,3.96849 -10.1737,11.97762 v 51.66248 z"
     id="path2998"
     style="fill:#ffffff" /><path
     d="M 5845.1996,675.92957 V 597.57 h 14.2144 v 78.35957 z m 0,-92.57397 v -14.2144 h 14.2144 v 14.2144 z"
     id="path3000"
     style="fill:#ffffff" /><path
     d="m 5928.3214,665.97227 q -6.3496,5.8445 -12.5549,8.80283 -6.1331,2.95832 -12.0498,2.95832 -8.2977,0 -15.441,-5.48372 -7.1432,-5.48373 -7.1432,-16.01826 0,-11.54469 9.9572,-19.04873 9.9573,-7.5762 31.8201,-7.5762 h 3.3191 v -9.45222 q 0,-5.62803 -1.5152,-8.15343 -1.5153,-2.59756 -4.7622,-4.04064 -3.1748,-1.44309 -7.937,-1.44309 -11.0396,0 -24.0995,6.92681 v -11.76115 q 14.3587,-5.8445 27.0578,-5.8445 6.9268,0 12.6992,2.23679 5.8445,2.16463 9.3079,6.92681 3.4634,4.69003 3.4634,15.1524 v 35.49992 q 0,5.91665 0.938,8.00912 0.938,2.02033 2.5975,3.10264 1.7318,1.08231 3.9685,1.08231 0.938,0 2.7419,-0.28861 l 1.0102,7.86482 q -4.8344,2.30893 -10.6789,2.30893 -3.8963,0 -7.504,-2.5254 -3.6077,-2.5254 -5.1951,-9.23575 z m -2.0925,-7.72051 V 637.9764 l -4.5457,-0.1443 q -11.1839,0 -18.7601,4.32925 -7.5762,4.32926 -7.5762,11.76115 0,5.12296 3.6798,8.65852 3.752,3.53556 8.7307,3.53556 4.4736,0 9.0914,-1.94817 4.6179,-2.02032 9.3801,-5.91665 z"
     id="path3002"
     style="fill:#ffffff" /></g></svg>
