<?xml version="1.0" encoding="UTF-8" standalone="no"?>
<svg
   svg:contrastcolor="11111f"
   svg:template="Contrast"
   svg:presentation="2.5"
   svg:layouttype="undefined"
   svg:specialfontid="undefined"
   svg:id1="005"
   svg:id2="104"
   svg:companyname="SaturnoSys Tech"
   svg:companytagline=""
   version="1.1"
   viewBox="0 0 140.09882 155.70572"
   id="svg1"
   sodipodi:docname="saturnosys-1.svg"
   width="140.09882"
   height="155.70572"
   inkscape:version="1.3 (0e150ed6c4, 2023-07-21)"
   xmlns:inkscape="http://www.inkscape.org/namespaces/inkscape"
   xmlns:sodipodi="http://sodipodi.sourceforge.net/DTD/sodipodi-0.dtd"
   xmlns="http://www.w3.org/2000/svg"
   xmlns:svg="http://www.w3.org/2000/svg">
  <defs
     id="defs1" />
  <sodipodi:namedview
     id="namedview1"
     pagecolor="#ffffff"
     bordercolor="#000000"
     borderopacity="0.25"
     inkscape:showpageshadow="2"
     inkscape:pageopacity="0.0"
     inkscape:pagecheckerboard="0"
     inkscape:deskcolor="#d1d1d1"
     inkscape:clip-to-page="true"
     inkscape:zoom="1.2574468"
     inkscape:cx="269.59391"
     inkscape:cy="232.61421"
     inkscape:window-width="1578"
     inkscape:window-height="787"
     inkscape:window-x="62"
     inkscape:window-y="-8"
     inkscape:window-maximized="1"
     inkscape:current-layer="svg1" />
  <g
     data-paper-data="{&quot;fillRule&quot;:&quot;nonzero&quot;,&quot;fillRuleOriginal&quot;:&quot;evenodd&quot;,&quot;isIcon&quot;:true,&quot;iconStyle&quot;:&quot;standalone&quot;,&quot;selectedEffects&quot;:{&quot;container&quot;:&quot;hexagon_simple_filled_rounded_upright&quot;,&quot;transformation&quot;:&quot;&quot;,&quot;pattern&quot;:&quot;&quot;},&quot;bounds&quot;:{&quot;x&quot;:204.9505860706521,&quot;y&quot;:115,&quot;width&quot;:140.0988278586958,&quot;height&quot;:155.70573056456362},&quot;widthRatioIconToContainer&quot;:0.8997691231082469,&quot;heightRatioIconToContainer&quot;:0.8081058580248849,&quot;relativeBoundsIconToContainer&quot;:{&quot;top&quot;:-0.0007907803197013011,&quot;left&quot;:-0.0000018532921163528334},&quot;iconType&quot;:&quot;icon&quot;,&quot;rawIconId&quot;:&quot;37726&quot;,&quot;isDetailed&quot;:false,&quot;suitableAsStandaloneIcon&quot;:true}"
     fill-rule="#0c4c9c"
     style="fill:#000000"
     id="g1"
     transform="translate(-204.95059,-115)">
    <path
       d="m 264.49259,118.03323 c 7.00494,-4.04431 14.00988,-4.04431 21.01482,0 l 49.03459,28.31013 c 7.00494,4.04431 10.50741,10.11076 10.50741,18.19937 v 56.62026 c 0,8.08861 -3.50247,14.15507 -10.50741,18.19937 l -49.03459,28.31013 c -7.00494,4.04431 -14.00988,4.04431 -21.01482,0 L 215.458,239.36236 c -7.00494,-4.04431 -10.50741,-10.11076 -10.50741,-18.19937 v -56.62026 c 0,-8.08861 3.50247,-14.15507 10.50741,-18.19937 z m 58.58234,34.07415 -7.37942,7.37942 c 7.46394,9.08783 11.95003,20.70715 11.95003,33.35714 0,12.64852 -4.48904,24.26487 -11.9515,33.3527 l -9.48379,-9.48379 c 5.07038,-6.61715 8.08829,-14.88785 8.08829,-23.8689 0,-19.9434 -14.86115,-36.40619 -34.11051,-38.94806 l 10e-4,-13.436 c 10.62571,1.04551 20.33639,5.25576 28.16516,11.68457 l 7.37942,-7.37942 c -10.98756,-9.3177 -25.20064,-14.94865 -40.73508,-14.94865 -34.809,0 -63.02755,28.21855 -63.02755,63.02755 0,33.06055 25.45869,60.15498 57.83705,62.79768 v -10.40918 c -26.60207,-2.61601 -47.45604,-25.10869 -47.45604,-52.3885 0,-27.27684 20.85396,-49.77249 47.45456,-52.3885 v 13.43451 c -17.54687,2.31793 -31.43814,16.21365 -33.75608,33.76349 h 10.52189 c 2.45585,-13.47307 14.2546,-23.72802 28.42617,-23.72802 15.94523,0 28.91852,12.9733 28.91852,28.91852 0,15.94523 -12.9733,28.91852 -28.91852,28.91852 -14.17156,0 -25.97031,-10.25496 -28.42617,-23.72802 h -10.52189 c 2.54186,19.24935 19.00466,34.10903 38.94806,34.10903 8.98254,0 17.25472,-3.01939 23.87187,-8.08829 l 9.48231,9.48083 c -7.83025,6.42881 -17.53501,10.6524 -28.16219,11.69791 v 10.40918 c 32.37837,-2.64123 57.83705,-29.73714 57.83705,-62.79768 -0.001,-15.5374 -5.63392,-29.75049 -14.95311,-40.73804 z m -32.70833,39.98157 c -0.0124,-0.25151 -0.0309,-0.50254 -0.0556,-0.75307 -0.0246,-0.25062 -0.0554,-0.50046 -0.0924,-0.74951 -0.037,-0.24914 -0.08,-0.4972 -0.12917,-0.74417 -0.049,-0.24697 -0.10415,-0.49255 -0.16535,-0.73675 -0.0612,-0.24429 -0.12833,-0.48692 -0.2014,-0.72785 -0.0732,-0.24094 -0.15216,-0.47995 -0.23698,-0.71703 -0.0848,-0.23708 -0.17539,-0.47194 -0.27168,-0.70458 -0.0964,-0.23264 -0.19842,-0.4628 -0.30609,-0.69048 -0.10766,-0.2276 -0.22087,-0.45242 -0.33961,-0.67447 -0.11864,-0.22215 -0.24271,-0.4412 -0.37223,-0.65712 -0.12941,-0.21603 -0.26407,-0.42869 -0.40397,-0.63799 -0.13989,-0.2094 -0.28483,-0.41524 -0.43482,-0.61752 -0.14998,-0.20218 -0.30486,-0.40061 -0.46463,-0.59528 -0.15977,-0.19467 -0.32419,-0.38528 -0.49324,-0.57184 -0.16916,-0.18656 -0.34277,-0.36887 -0.52083,-0.54692 -0.17806,-0.17806 -0.36037,-0.35167 -0.54692,-0.52083 -0.18656,-0.16906 -0.37717,-0.33347 -0.57184,-0.49324 -0.19467,-0.15977 -0.39309,-0.31464 -0.59528,-0.46463 -0.20228,-0.14998 -0.40812,-0.29491 -0.61752,-0.43482 -0.2093,-0.13989 -0.42196,-0.27455 -0.63799,-0.40397 -0.21592,-0.12952 -0.43496,-0.2536 -0.65712,-0.37223 -0.22205,-0.11874 -0.44688,-0.23195 -0.67447,-0.33961 -0.22769,-0.10766 -0.45785,-0.2097 -0.69048,-0.30609 -0.23263,-0.0963 -0.46749,-0.18685 -0.70458,-0.27168 -0.23708,-0.0848 -0.47609,-0.16383 -0.71703,-0.23698 -0.24094,-0.0731 -0.48356,-0.1402 -0.72785,-0.2014 -0.2442,-0.0612 -0.48979,-0.11632 -0.73675,-0.16535 -0.24697,-0.0491 -0.49503,-0.0922 -0.74417,-0.12917 -0.24904,-0.037 -0.49888,-0.0678 -0.74951,-0.0924 -0.25053,-0.0247 -0.50155,-0.0433 -0.75307,-0.0556 -0.25152,-0.0124 -0.50319,-0.0185 -0.75499,-0.0185 -0.25182,0 -0.50348,0.006 -0.75499,0.0185 -0.25151,0.0124 -0.50254,0.0309 -0.75307,0.0556 -0.25062,0.0246 -0.50046,0.0554 -0.74951,0.0924 -0.24914,0.037 -0.4972,0.08 -0.74417,0.12917 -0.24697,0.049 -0.49255,0.10415 -0.73675,0.16535 -0.24429,0.0612 -0.48692,0.12833 -0.72785,0.2014 -0.24094,0.0732 -0.47995,0.15216 -0.71703,0.23698 -0.23708,0.0848 -0.47194,0.17539 -0.70458,0.27168 -0.23264,0.0964 -0.4628,0.19842 -0.69048,0.30609 -0.2276,0.10766 -0.45242,0.22087 -0.67447,0.33961 -0.22215,0.11864 -0.4412,0.24271 -0.65712,0.37223 -0.21603,0.12941 -0.42869,0.26407 -0.63799,0.40397 -0.2094,0.13989 -0.41524,0.28483 -0.61752,0.43482 -0.20218,0.14998 -0.40061,0.30486 -0.59528,0.46463 -0.19467,0.15977 -0.38528,0.32419 -0.57184,0.49324 -0.18656,0.16916 -0.36887,0.34277 -0.54692,0.52083 -0.17806,0.17806 -0.35167,0.36037 -0.52083,0.54692 -0.16906,0.18656 -0.33347,0.37717 -0.49324,0.57184 -0.15977,0.19467 -0.31464,0.39309 -0.46463,0.59528 -0.14998,0.20228 -0.29491,0.40812 -0.43482,0.61752 -0.13989,0.2093 -0.27455,0.42196 -0.40397,0.63799 -0.12952,0.21592 -0.2536,0.43496 -0.37223,0.65712 -0.11874,0.22205 -0.23195,0.44688 -0.33961,0.67447 -0.10766,0.22769 -0.2097,0.45785 -0.30609,0.69048 -0.0963,0.23263 -0.18685,0.46749 -0.27168,0.70458 -0.0848,0.23708 -0.16383,0.47609 -0.23698,0.71703 -0.0731,0.24094 -0.1402,0.48356 -0.2014,0.72785 -0.0612,0.2442 -0.11632,0.48979 -0.16535,0.73675 -0.0491,0.24697 -0.0922,0.49503 -0.12917,0.74417 -0.037,0.24904 -0.0678,0.49888 -0.0924,0.74951 -0.0247,0.25053 -0.0433,0.50155 -0.0556,0.75307 -0.0124,0.25152 -0.0185,0.50319 -0.0185,0.75499 0,0.25182 0.006,0.50348 0.0185,0.75499 0.0124,0.25151 0.0309,0.50254 0.0556,0.75307 0.0246,0.25062 0.0554,0.50046 0.0924,0.74951 0.037,0.24914 0.08,0.4972 0.12917,0.74417 0.049,0.24697 0.10415,0.49255 0.16535,0.73675 0.0612,0.24429 0.12833,0.48692 0.2014,0.72785 0.0732,0.24094 0.15216,0.47995 0.23698,0.71703 0.0848,0.23708 0.17539,0.47194 0.27168,0.70458 0.0964,0.23264 0.19842,0.4628 0.30609,0.69048 0.10766,0.2276 0.22087,0.45242 0.33961,0.67447 0.11864,0.22215 0.24271,0.4412 0.37223,0.65712 0.12941,0.21603 0.26407,0.42869 0.40397,0.63799 0.13989,0.2094 0.28483,0.41524 0.43482,0.61752 0.14998,0.20218 0.30486,0.40061 0.46463,0.59528 0.15977,0.19467 0.32419,0.38528 0.49324,0.57184 0.16916,0.18656 0.34277,0.36887 0.52083,0.54692 0.17806,0.17806 0.36037,0.35167 0.54692,0.52083 0.18656,0.16906 0.37717,0.33347 0.57184,0.49324 0.19467,0.15977 0.39309,0.31464 0.59528,0.46463 0.20228,0.14998 0.40812,0.29491 0.61752,0.43482 0.2093,0.13989 0.42196,0.27455 0.63799,0.40397 0.21592,0.12952 0.43496,0.2536 0.65712,0.37223 0.22205,0.11874 0.44688,0.23195 0.67447,0.33961 0.22769,0.10766 0.45785,0.2097 0.69048,0.30609 0.23263,0.0963 0.46749,0.18685 0.70458,0.27168 0.23708,0.0848 0.47609,0.16383 0.71703,0.23698 0.24094,0.0731 0.48356,0.1402 0.72785,0.2014 0.2442,0.0612 0.48979,0.11632 0.73675,0.16535 0.24697,0.0491 0.49503,0.0922 0.74417,0.12917 0.24904,0.037 0.49888,0.0678 0.74951,0.0924 0.25053,0.0247 0.50155,0.0433 0.75307,0.0556 0.25152,0.0124 0.50319,0.0185 0.75499,0.0185 0.25182,0 0.50348,-0.006 0.75499,-0.0185 0.25151,-0.0124 0.50254,-0.0309 0.75307,-0.0556 0.25062,-0.0246 0.50046,-0.0554 0.74951,-0.0924 0.24914,-0.037 0.4972,-0.08 0.74417,-0.12917 0.24697,-0.049 0.49255,-0.10415 0.73675,-0.16535 0.24429,-0.0612 0.48692,-0.12833 0.72785,-0.2014 0.24094,-0.0732 0.47995,-0.15216 0.71703,-0.23698 0.23708,-0.0848 0.47194,-0.17539 0.70458,-0.27168 0.23264,-0.0964 0.4628,-0.19842 0.69048,-0.30609 0.2276,-0.10766 0.45242,-0.22087 0.67447,-0.33961 0.22215,-0.11864 0.4412,-0.24271 0.65712,-0.37223 0.21603,-0.12941 0.42869,-0.26407 0.63799,-0.40397 0.2094,-0.13989 0.41524,-0.28483 0.61752,-0.43482 0.20218,-0.14998 0.40061,-0.30486 0.59528,-0.46463 0.19467,-0.15977 0.38528,-0.32419 0.57184,-0.49324 0.18656,-0.16916 0.36887,-0.34277 0.54692,-0.52083 0.17806,-0.17806 0.35167,-0.36037 0.52083,-0.54692 0.16906,-0.18656 0.33347,-0.37717 0.49324,-0.57184 0.15977,-0.19467 0.31464,-0.39309 0.46463,-0.59528 0.14998,-0.20228 0.29491,-0.40812 0.43482,-0.61752 0.13989,-0.2093 0.27455,-0.42196 0.40397,-0.63799 0.12952,-0.21592 0.2536,-0.43496 0.37223,-0.65712 0.11874,-0.22205 0.23195,-0.44688 0.33961,-0.67447 0.10766,-0.22769 0.2097,-0.45785 0.30609,-0.69048 0.0963,-0.23263 0.18685,-0.46749 0.27168,-0.70458 0.0848,-0.23708 0.16383,-0.47609 0.23698,-0.71703 0.0731,-0.24094 0.1402,-0.48356 0.2014,-0.72785 0.0612,-0.2442 0.11632,-0.48979 0.16535,-0.73675 0.0491,-0.24697 0.0922,-0.49503 0.12917,-0.74417 0.037,-0.24904 0.0678,-0.49888 0.0924,-0.74951 0.0247,-0.25053 0.0433,-0.50155 0.0556,-0.75307 0.0124,-0.25152 0.0185,-0.50319 0.0185,-0.75499 0,-0.25182 -0.006,-0.50348 -0.0185,-0.75499 z"
       data-paper-data="{&quot;isPathIcon&quot;:true}"
       id="path1" />
  </g>
</svg>
